<?xml version="1.0" encoding="UTF-8"?>
<svg xmlns="http://www.w3.org/2000/svg" viewBox="0 0 587.76 386.28">
  <defs>
    <style>
      .cls-1 {
        font-family: ThanksAutumn, 'Thanks Autumn';
        font-size: 46px;
        stroke: #fff;
        stroke-width: 2px;
      }

      .cls-1, .cls-2 {
        fill: #1d1d1b;
      }

      .cls-1, .cls-3, .cls-4, .cls-5 {
        stroke-miterlimit: 10;
      }

      .cls-6 {
        fill: #fff;
      }

      .cls-7 {
        fill: #f6f6f6;
      }

      .cls-8 {
        fill: #575756;
      }

      .cls-9 {
        letter-spacing: -.04em;
      }

      .cls-10 {
        fill: #be1622;
      }

      .cls-11 {
        fill: #009fe3;
      }

      .cls-2 {
        opacity: .2;
      }

      .cls-3 {
        fill: #8e181b;
      }

      .cls-3, .cls-4, .cls-5 {
        stroke: #3c3c3b;
        stroke-width: 5px;
      }

      .cls-12 {
        fill: #dadada;
      }

      .cls-4 {
        fill: none;
      }

      .cls-13 {
        letter-spacing: .01em;
      }

      .cls-5 {
        fill: #3c3c3b;
      }
    </style>
  </defs>
  <g id="Schrift">
    <text class="cls-1" transform="translate(149.13 364.7)"><tspan x="0" y="0">WESTSI</tspan><tspan class="cls-13" x="136.94" y="0">D</tspan><tspan x="165.37" y="0">E-</tspan><tspan class="cls-9" x="203.55" y="0">F</tspan><tspan x="219.92" y="0">urs</tspan></text>
  </g>
  <g id="Fox">
    <g>
      <path id="Weiß" class="cls-6" d="m222.43,176.63l-19.63,128.58c-1.73.54-3.5,1.09-5.29,1.64l-.09.02c-2.2.68-4.46,1.38-6.75,2.08-.24.07-.47.14-.7.22-.54.16-1.08.32-1.62.49-.61.19-1.23.38-1.85.57-4.14,1.26-8.42,2.56-12.86,3.91-5.01,1.51-10.21,3.07-15.6,4.7-.61.18-1.22.37-1.84.55h0c-2.31.7-4.65,1.4-7.03,2.12-7.65,2.3-22.41,6.73-25.35,17.45-2.76,10.01,5.99,21.11,13.27,28.32,2.95,2.92,5.66,5.2,7.27,6.52-66-6.29-54.68-64.36-54.68-64.36-14.51,26.71-34.45,13.74-34.45,13.74,2.79-.15,6.99-.73,11.42-2.9,11.99-5.87,14.66-16.94,22.07-30,15.14-26.71,29.64-24.42,34.12-45.16,2.05-9.47,1.69-22.39-4.29-25.59-3.74-2-8.35-.69-11.32.56-3.44,1.13-8.65,2.88-14.97,5.13-7.58,2.69-9.35,3.47-20.12,7.38-7.76,2.82-12.05,4.38-17.78,6.28-.18.06-.36.12-.55.18-5.45,1.79-10.02,3.18-13.22,4.12-1.45-1.05-3.7-2.64-6.52-4.45-3.83-2.44-6.98-4.45-9.78-6.11h-.01s-.05-.03-.08-.05c-.94-.56-1.84-1.07-2.71-1.55l6.65-34.03,73.93-47.22,61.16-25.55,59.21,52.41Z"/>
      <path id="Schatten" class="cls-12" d="m144.35,373.8c-66-6.29-54.68-64.36-54.68-64.36-14.51,26.71-34.45,13.74-34.45,13.74,2.79-.15,6.99-.73,11.42-2.9,11.99-5.87,14.66-16.94,22.07-30,15.14-26.71,29.64-24.42,34.12-45.16,2.05-9.47,1.69-22.39-4.29-25.59-3.74-2-8.35-.69-11.32.56-3.44,1.13-8.65,2.88-14.97,5.13-7.58,2.69-9.35,3.47-20.12,7.38-7.76,2.82-12.05,4.38-17.78,6.28,1.9-2.55,4.21-5.27,7.07-8.02,22.19-21.39,61.63-29.77,74.51-14.71,7.73,9.04,4.44,24.8,3.68,28.45-2.32,11.14-8.18,18.22-11.81,23.04-5.4,7.16-34,45.1-25.61,71.16,5.23,16.24,23.55,23.87,31.53,27.19,1.12.47,2.24.9,3.36,1.29,2.95,2.92,5.66,5.2,7.27,6.52Z"/>
      <path id="Strich" class="cls-5" d="m62.72,207.19s-6.6,1.33-13.11.08c-6.35-1.22-6.68-6.16-6.69-6.4h0s4.69-5.91,4.69-5.91c0,0,.75,1.63,3.08,6.44,2.33,4.83,12.03,5.79,12.03,5.79Z"/>
      <path id="Rot" class="cls-10" d="m281.32,272.07c-.74.87-1.55,1.78-2.71,2.8-.29.24-.59.49-.91.74-.26.2-.53.41-.81.62-.45.32-.92.66-1.42.99-7.91,5.21-26.28,13.24-78.06,29.61-3.12.98-6.14,1.93-9.06,2.84-.61.19-1.23.38-1.85.57-1.21.37-2.4.74-3.57,1.1-.61.19-1.22.38-1.81.56-9.13,2.81-16.95,5.15-23.08,6.95-.61.18-1.23.37-1.85.55,10.79-14,18.47-26.49,23.63-35.63,11.17-19.78,26.99-48.51,25.5-79.8-.51-10.53-2.79-17.61-4.54-21.95-.8-1.98-6.52-15.75-17.31-24.19-25.45-19.9-69.32-2.45-90.31,5.89-7.87,3.13-14.8,5.93-23.31,11.43-27.59,17.84-40.25,43.76-45.66,57.43,0,.01-.01.01-.01.02h-.01c-1.47-.88-2.85-1.65-4.17-2.34h-.01c-.66-.34-1.31-.66-1.95-.96-.94-.44-1.88-.84-2.81-1.21-1.53-.59-3.08-1.08-4.72-1.48-.24-.06-.48-.11-.71-.17-.69-.17-1.35-.3-1.97-.44-.07,0-.13-.02-.2-.04-.18-.04-.36-.08-.53-.12-.75-.17-1.44-.35-2.03-.58-1.14-.41-1.98-.99-2.4-1.97-.92-2.12.66-4.88,2.23-6.96.51-.71,1.03-1.43,1.55-2.15,1.91-2.64,3.87-5.3,5.87-7.97.3-.4.6-.81.9-1.21,1.84-2.45,3.68-4.87,5.51-7.25l6.52-7.92h0s6.62-8.05,6.62-8.05l14.74-17.91c2.49-4.3,5.5-10.73,6.92-18.99.69-4.08.86-7.79.78-10.94-1.28-2.73-2.56-5.46-3.83-8.19l11.03-17.04,55.55-52.64,42-6c.45-.06.91-.14,1.39-.24,20.83-4.31,70.03-43.96,70.03-43.96v.11c.01.4.02.81.02,1.2.81,61.52-22.25,78.72-17.44,82.37,4.84,3.68,33.38,42.58,42.29,51.87,3.37,3.51,7.48,5.73,11.3,7.12,1.38.51,2.73.91,3.98,1.22.18.04.36.09.53.13.31.07.61.13.91.2,3.7.78,6.31.82,6.31.82,0,.01-.01.02-.01.03-3.51,7.61-17.51,5.97-17.51,5.97l18.52,22.64c19.59,53.56,13.16,79.17,1.94,92.52Z"/>
      <path id="Blau" class="cls-11" d="m253.42,145.18c-1.85,3.49-4.06,7.58-6.59,12.13-8.49,15.29-12.78,19.04-17.12,26.42-8.66,14.7-11.99,43.72-12.42,49.13-3.11,38.61-26.89,70.72-34.36,78.48-1.19,1.25-1.96,1.87-2.16,1.78-.14-.06,0-.47.35-1.22,2.72-5.75,18.52-31.38,25.46-70.2,4.29-24.05,2.48-39.71,14.13-61.93,5.93-11.33,12.88-19.61,18-24.97-4.79,1.45-12.08,3.04-21,2.71-8.1-.3-14.68-2.08-19.17-3.68,2.56.3,10.05.86,17.71-3.63,5.67-3.31,8.72-7.8,10.07-10.11-5.61,2.03-21.2,6.8-35.38-.69-2.08-1.09-3.94-2.36-5.61-3.72,1.72.22,4.67.39,8.08-.59.38-.11,7.27-2.14,8.13-4.81,2.56-7.96-42.89-38.6-84.61-36.24-13.33.76-24.1,4.76-27.39,6.05-9.16,3.6-17.24,6.77-23.35,14.84-4.69,6.19-7.74,14.63-8.58,16.96-1.84,5.1-3.38,11.07-3.68,10.99-.16-.04.28-1.73.43-4.71.08-1.49.08-2.9.05-4.21-1.28-2.73-2.56-5.46-3.83-8.19l11.03-17.04c17.37-13.61,33.59-18.8,42.99-21.01,0,0,53.05-12.51,100.3,28.3,2.33,2.02,7.59,6.55,6.84,11.68-.5,3.43-3.42,5.73-5.16,6.87,1.69.56,4.02,1.22,6.87,1.65,1.92.29,4.76.7,8.32.38,3.24-.28,5.48-1.02,8.81-2.12,2.45-.82,5.71-2.05,9.43-3.92-3.79,5.88-7.58,11.77-11.37,17.66,1.51.23,3.56.48,6,.58,2.65.1,5.91.21,9.94-.58,2.22-.44,5.34-1.29,8.84-3.04Z"/>
      <path id="Nase" class="cls-5" d="m20.09,228.83s-.75.19-1.95.49c-2.52-1.18-4.95-2.06-7.63-2.72-3.84-.94-6.8-1.11-7.74-3.29-.92-2.12.66-4.88,2.23-6.96.51-.71,1.03-1.43,1.55-2.15,1.91-2.64,3.87-5.3,5.87-7.97l.12-.05h.59l6.96,22.65Z"/>
      <path id="Dunkelrot" class="cls-3" d="m213.76,91.82s-.04,0-.06-.01c-7.65-1.27-15.78-5.99-20.34-13.06-.79-1.22-1.48-2.5-2.03-3.86-5.11-12.4,1.05-28.63,10.74-41.53.05-.07.1-.14.15-.21,5.44-7.19,11.97-13.33,18.24-17.17,2.26-1.39,4.19-2.55,5.92-3.17.06-.03.12-.04.17-.06.62-.22,1.21-.36,1.79-.42.07,0,.14-.01.21-.01.02,0,.05,0,.08,0-1.36,58.51-19.75,74.27-16.14,77.87.31.31.74.86,1.28,1.63Z"/>
      <polygon id="Auge" class="cls-5" points="76.17 152.87 80.73 134.39 116.41 111.95 77.13 152.78 76.17 152.87"/>
      <path id="Ohr" class="cls-5" d="m230.6,7.05s-.06.08-.1.12c-2.84,3.41-10.08,8.66-16.96,19.31-16.01,24.8-7.66,44.26-20.12,50.32-10.62,5.16-27.68-3.59-31.17-11.23-1.24-2.73-1.83-6-1.83-6,0,0-.81-4.46.03-9.71v-.04c20.83-4.31,70.03-43.96,70.03-43.96v.11c.07-.05.1-.08.1-.08.01.39.01.78.02,1.16Z"/>
      <g id="Outlines">
        <path class="cls-4" d="m281.42,272.09c-.64.76-1.38,1.51-2.24,2.26-.05.04-.1.09-.15.13-.07.07-.14.13-.21.2l-.21.18c-.29.24-.59.49-.91.74-.26.2-.53.41-.81.62-.45.32-.92.66-1.42.99-.12.08-.25.17-.38.25-.13.09-.26.17-.39.26-.07.04-.13.08-.19.12-11.92,7.7-35.09,15.95-71.71,27.37-1.73.54-3.5,1.09-5.29,1.64l-.09.02c-2.2.68-4.46,1.38-6.75,2.08-.24.07-.47.14-.7.22-.54.16-1.08.32-1.62.49-.61.19-1.23.38-1.85.57-4.14,1.26-8.42,2.56-12.86,3.91-5.01,1.51-10.21,3.07-15.6,4.7-.61.18-1.22.37-1.84.55h0c-2.31.7-4.65,1.4-7.03,2.12-7.65,2.3-22.41,6.73-25.35,17.45-2.76,10.01,5.99,21.11,13.27,28.32,2.95,2.92,5.66,5.2,7.27,6.52-66-6.29-54.68-64.36-54.68-64.36-14.51,26.71-34.45,13.74-34.45,13.74,2.79-.15,6.99-.73,11.42-2.9,11.99-5.87,14.66-16.94,22.07-30,15.14-26.71,29.64-24.42,34.12-45.16,2.05-9.47,1.69-22.39-4.29-25.59-3.74-2-8.35-.69-11.32.56-3.44,1.13-8.65,2.88-14.97,5.13-7.58,2.69-9.35,3.47-20.12,7.38-7.76,2.82-12.05,4.38-17.78,6.28-.18.06-.36.12-.55.18-5.45,1.79-10.02,3.18-13.22,4.12-1.45-1.05-3.7-2.64-6.52-4.45-3.83-2.44-6.98-4.45-9.78-6.11h-.01s-.05-.03-.08-.05c-.94-.56-1.84-1.07-2.71-1.55-.47-.26-.93-.5-1.38-.74h-.01c-.66-.34-1.31-.66-1.95-.96-.98-.46-1.94-.87-2.91-1.24-1.53-.59-3.08-1.08-4.72-1.48-.24-.06-.48-.11-.71-.17-.69-.16-1.35-.3-1.97-.44-.07,0-.13-.02-.2-.04-.18-.04-.36-.08-.53-.12-.75-.17-1.44-.35-2.03-.58-1.09-.42-1.89-.99-2.3-1.94-.92-2.12.66-4.88,2.23-6.96.51-.71,1.03-1.43,1.55-2.15,1.91-2.64,3.87-5.3,5.87-7.97.3-.4.6-.81.9-1.21,1.84-2.45,3.68-4.87,5.51-7.25l6.52-7.92h0s6.62-8.05,6.62-8.05l14.74-17.91c2.49-4.3,5.5-10.73,6.92-18.99.12-.69.22-1.36.3-2.02.44-3.29.55-6.3.48-8.92-1.28-2.73-2.56-5.46-3.83-8.19l11.03-17.04,26.67-25.27,28.88-27.37,42-6c.42-.06.85-.13 1.29-.23,9.03-1.83,23.46-10.37,36.89-19.45,13.19-8.92,25.42-18.35,30.61-22.44,1.36-1.07,2.24-1.77,2.53-2,.07-.05.1-.08.1-.08.01.39.01.78.02,1.16v.39c.75,61.33-22.24,78.48-17.44,82.13.41.31.99.88,1.72,1.66,7.83,8.41,32.42,41.71,40.57,50.21,2.92,3.05,6.4,5.12,9.76,6.53.48.19.96.38 1.44.56,1.38.51 2.73.91 3.98 1.22.18.05.35.09.53.13.31.07.61.14.91.2.21.05.41.09.61.13.4.08.78.15 1.15.21.19.04.37.07.54.09.28.05.55.09.8.12,1.68.24,2.85.29,3.2.3h.11c-3.48,7.64-17.52,6-17.52,6l18.52,22.64c19.59,53.56,13.16,79.17,1.94,92.52Z"/>
      </g>
    </g>
  </g>
  <g id="Wolf">
    <g>
      <path id="Grau" class="cls-8" d="m583.51,204.44c-2.63,6.59-6.75,8.39-13.02,13.03-.34.25-.69.52-1.05.79-2.68,2.05-5.73,4.65-9.2,8.34-4.87,5.18-5.57,7.18-10.82,11.68-5.1,4.36-9.93,7.18-13.29,8.9-4.65-1.4-11.51-3.75-19.44-7.51-9.45-4.49-13.93-7.91-20.56-11.58-6.45-3.56-15.85-7.87-28.64-10.88-.89-.21-1.8-.41-2.72-.61-2.88-.3-8.27-.39-12.56,2.93-8.5,6.6-5.04,22.16-4.29,25.59,4.51,20.79,18.99,18.45,34.13,45.16,7.4,13.06,10.07,24.12,22.06,30,4.43,2.17,8.63,2.75,11.42,2.9,0,0-19.94,12.97-34.45-13.74,0,0,11.32,58.07-54.68,64.36,5.59-4.58,24.41-20.78,20.55-34.84-2.95-10.72-17.71-15.15-25.36-17.45-80.92-24.33-121.6-36.75-132.25-49.42-11.23-13.35-17.66-38.96,1.93-92.52l18.52-22.64s-14.04,1.64-17.52-6c0,0,14.13-.2,23.03-9.49,8.91-9.29,37.45-48.19,42.29-51.87,4.84-3.68-18.58-21.09-17.42-83.68,7.93,6.83,17.31,14.06,28.24,21.09,16.69,10.73,32.56,18.13,46.04,23.3,16.43,6.28,32.86,12.56,49.29,18.84,15.13,13.2,30.27,26.41,45.4,39.61,2.63,5.1,5.26,10.2,7.89,15.29-.23,3.32-.46,6.63-.69,9.94,1.17,2.67,2.86,5.89,5.33,9.22,3.79,5.11,7.94,8.51,11.04,10.65,6.93,6.16,13.87,12.32,20.8,18.48,7.12,5.8,13.51,9.33,18.2,11.52,4.87,2.28,8.57,3.43,10.91,5.89.62.64,1.14,1.37,1.57,2.24,2.38,4.83.14,10.44-.68,12.48Z"/>
      <path id="Ohr-2" data-name="Ohr" class="cls-5" d="m342.98,11.31s.06.08.1.12c2.84,3.41,10.08,8.66,16.96,19.31,16.01,24.8,7.66,44.26,20.12,50.32,10.62,5.16,27.68-3.59,31.17-11.23,1.24-2.73,1.83-6,1.83-6,0,0,.81-4.46-.03-9.71v-.04c-20.83-4.31-70.03-43.96-70.03-43.96v.11c-.07-.05-.1-.08-.1-.08-.01.39-.01.78-.02,1.16Z"/>
      <path id="Weiß_2" data-name="Weiß 2" class="cls-7" d="m515.53,323.18s-2.28,1.48-5.86,2.42c-7,1.81-18.99,1.52-28.59-16.16,0,0,11.32,58.07-54.68,64.36,5.39-1.63,13.19-4.86,20.47-11.52,2.31-2.11,4.22-4.26,5.81-6.29,3.9-4.43,19.03-22.6,15.97-44.81-.39-2.86-1.08-7.84-4-13.54-7.9-15.45-20.7-13.81-25.94-26.84-3.08-7.65-2.43-17.58,2.35-24.84,2.27-3.45,5.05-5.65,7.06-6.97-.25,1.41-.49,3.56-.21,6.13.51,4.58,2.51,7.9,3.81,10.08,5.19,8.73,13.69,12.25,23.08,24.2,2.37,3.01,4.8,6.57,7.24,10.88,7.4,13.06,10.07,24.12,22.06,30,.53.26,1.06.5,1.59.71,3.83,1.59,7.38,2.06,9.83,2.19Z"/>
      <path id="Weiß_1" data-name="Weiß 1" class="cls-7" d="m571.62,216.64c-.37.27-.75.55-1.13.83-.34.25-.69.52-1.05.79-2.68,2.05-5.73,4.65-9.2,8.34-4.87,5.18-5.57,7.18-10.82,11.68-5.1,4.36-9.93,7.18-13.29,8.9-4.65-1.4-11.51-3.75-19.44-7.51-9.45-4.49-13.93-7.91-20.56-11.58-6.45-3.56-15.85-7.87-28.64-10.88-.89-.21-1.8-.41-2.72-.61-.27-.03-.57-.05-.88-.08.99-1.6,2.55-3.93,4.75-6.5,17.63-20.54,54.61-30.43,81.51-15.11,4.97,2.83,13.98,9.01,21.47,21.73Z"/>
      <path id="Schatten-2" data-name="Schatten" class="cls-2" d="m446.67,231.94c-.4,5.72.84,11.29,1.25,13.18,3.78,17.43,14.57,18.6,26.89,34.28,2.37,3.01,4.8,6.57,7.24,10.88,7.4,13.06,10.07,24.12,22.06,30,.53.26,1.06.5,1.59.71,3.83,1.59,7.38,2.06,9.83,2.19,0,0-2.28,1.48-5.86,2.42-7,1.81-18.99,1.52-28.59-16.16,0,0,10.74,55.08-49.67,63.76,17.65-6.71,37.98-26.2,43.55-46.14,4.01-14.35,1.16-31.69-7.35-44-11.59-16.77-26.38-13.66-33.42-28.97-5.98-13-2.74-31.37,7.94-41.42,16.67-15.69,46.41-6.3,61.35,6.77,5.44,4.77,7.39,8.68,13.35,18.78.42.71.84,1.41,1.25,2.1-.46-.21-.92-.43-1.39-.65-9.45-4.49-13.93-7.91-20.56-11.58-6.45-3.56-15.85-7.87-28.64-10.88-.89-.21-1.8-.41-2.72-.61-.27-.03-.57-.05-.88-.08-3.01-.21-7.8,0-11.68,3.01-3.82,2.96-5.22,7.74-5.54,12.41Z"/>
      <path id="Nase-2" data-name="Nase" class="cls-5" d="m583.51,204.44c-2.63,6.59-6.75,8.39-13.02,13.03-5.93-7.58-11.86-15.16-17.78-22.74,2.06-1.85,4.13-3.7,6.19-5.55,2.86-1.91,5.72-3.83,8.58-5.74l15.14,6.28c.62.64,1.14,1.37,1.57,2.24,2.38,4.83.14,10.44-.68,12.48Z"/>
      <polygon id="Auge-2" data-name="Auge" class="cls-5" points="489.93 146.66 486.06 130.53 461.03 118.15 467.61 142.47 489.93 146.66"/>
      <path id="Outline" class="cls-4" d="m583.51,204.44c-2.47,6.19-6.25,8.15-11.89,12.2-.37.27-.75.55-1.13.83-.34.25-.69.52-1.05.79-2.68,2.05-5.73,4.65-9.2,8.34-4.87,5.18-5.57,7.18-10.82,11.68-5.1,4.36-9.93,7.18-13.29,8.9-4.38-1.32-10.71-3.48-18.05-6.86-.46-.21-.92-.43-1.39-.65-9.45-4.49-13.93-7.91-20.56-11.58-6.45-3.56-15.85-7.87-28.64-10.88-.89-.21-1.8-.41-2.72-.61-.27-.03-.57-.05-.88-.08-3.01-.21-7.8,0-11.68,3.01-3.82,2.96-5.22,7.74-5.54,12.41-.4,5.72.84,11.29,1.25,13.18,3.78,17.43,14.57,18.6,26.89,34.28,2.37,3.01,4.8,6.57,7.24,10.88,7.4,13.06,10.07,24.12,22.06,30,.53.26,1.06.5,1.59.71,3.83,1.59,7.38,2.06,9.83,2.19,0,0-2.28,1.48-5.86,2.42-7,1.81-18.99,1.52-28.59-16.16,0,0,10.74,55.08-49.67,63.76-1.62.24-3.29.44-5.01.6,3.11-2.55,10.31-8.69,15.43-16.06,1.23-1.76,2.33-3.6,3.23-5.47,2.1-4.37,3.09-8.94,1.89-13.31-2.95-10.72-17.71-15.15-25.36-17.45-80.92-24.33-121.6-36.75-132.25-49.42-11.23-13.35-17.66-38.96,1.93-92.52l18.52-22.64s-14.04,1.64-17.52-6c0,0,14.13-.2,23.03-9.49,8.91-9.29,37.45-48.19,42.29-51.87,4.84-3.68-18.58-21.09-17.42-83.68,7.21,6.21,15.62,12.76,25.31,19.17.96.65,1.94,1.28,2.93,1.92,16.69,10.73,32.56,18.13,46.04,23.3,16.43,6.28,32.86,12.56,49.29,18.84,15.13,13.2,30.27,26.41,45.4,39.61,2.63,5.1,5.26,10.2,7.89,15.29-.23,3.32-.46,6.63-.69,9.94,1.17,2.67,2.86,5.89,5.33,9.22,3.79,5.11,7.94,8.51,11.04,10.65,6.93,6.16,13.87,12.32,20.8,18.48,7.01,5.71,13.31,9.22,17.98,11.42.08.03.15.07.22.1,4.87,2.28,8.57,3.43,10.91,5.89.62.64,1.14,1.37,1.57,2.24,2.38,4.83.14,10.44-.68,12.48Z"/>
    </g>
  </g>
</svg>
